<?xml version="1.0" encoding="UTF-8" standalone="no"?>
<!DOCTYPE svg PUBLIC "-//W3C//DTD SVG 1.1//EN" "http://www.w3.org/Graphics/SVG/1.1/DTD/svg11.dtd">
<!-- Created with Vectornator (http://vectornator.io/) -->
<svg height="100%" stroke-miterlimit="10" style="fill-rule:nonzero;clip-rule:evenodd;stroke-linecap:round;stroke-linejoin:round;" version="1.1" viewBox="0 0 10587 10587" width="100%" xml:space="preserve" xmlns="http://www.w3.org/2000/svg" xmlns:xlink="http://www.w3.org/1999/xlink">
<defs>
<path d="M5431 10585C4457 10610 3624 10410 2768 9945C1911 9480 1290 8890 781 8060C272 7229 28 6407 3 5433C-23 4459 177 3626 642 2770C1107 1913 1697 1292 2528 782C3358 273 4180 30 5154 4C6128-21 6962 179 7818 644C8674 1109 9296 1699 9805 2530C10314 3360 10557 4182 10583 5156C10608 6130 10408 6964 9943 7820C9479 8676 8888 9298 8058 9807C7227 10316 6405 10559 5431 10585Z" id="Fill"/>
</defs>
<clipPath id="ArtboardFrame">
<rect height="10587" width="10587" x="0" y="0"/>
</clipPath>
<g clip-path="url(#ArtboardFrame)" id="Untitled">
<g opacity="1">
<use fill="#ffffff" fill-rule="evenodd" opacity="1" stroke="none" xlink:href="#Fill"/>
<clipPath id="ClipPath">
<use xlink:href="#Fill"/>
</clipPath>
<g clip-path="url(#ClipPath)">
<path d="M5293 5295L5247 3L5339 3L5293 5295Z" fill="#ffff00" fill-rule="evenodd" opacity="1" stroke="none"/>
<path d="M5293 5295L5339 10586C5306 10587 5279 10587 5247 10586L5293 5295Z" fill="#0000ff" fill-rule="evenodd" opacity="1" stroke="none"/>
<path d="M5293 5295L5339 3C5371 3 5399 4 5431 4L5293 5295Z" fill="#fffb00" fill-rule="evenodd" opacity="1" stroke="none"/>
<path d="M5293 5295L5247 10586C5214 10586 5187 10586 5154 10585L5293 5295Z" fill="#0004ff" fill-rule="evenodd" opacity="1" stroke="none"/>
<path d="M5293 5295L5431 4C5464 5 5491 6 5524 8L5293 5295Z" fill="#fff700" fill-rule="evenodd" opacity="1" stroke="none"/>
<path d="M5293 5295L5154 10585C5122 10584 5094 10583 5062 10582L5293 5295Z" fill="#0008ff" fill-rule="evenodd" opacity="1" stroke="none"/>
<path d="M5293 5295L5524 8C5556 9 5583 11 5616 13L5293 5295Z" fill="#fff300" fill-rule="evenodd" opacity="1" stroke="none"/>
<path d="M5293 5295L5062 10582C5029 10580 5002 10579 4970 10577L5293 5295Z" fill="#000cff" fill-rule="evenodd" opacity="1" stroke="none"/>
<path d="M5293 5295L5616 13C5648 15 5676 16 5708 19L5293 5295Z" fill="#ffee00" fill-rule="evenodd" opacity="1" stroke="none"/>
<path d="M5293 5295L4970 10577C4937 10575 4910 10573 4878 10570L5293 5295Z" fill="#0011ff" fill-rule="evenodd" opacity="1" stroke="none"/>
<path d="M5293 5295L5708 19C5740 22 5768 24 5800 27L5293 5295Z" fill="#ffea00" fill-rule="evenodd" opacity="1" stroke="none"/>
<path d="M5293 5295L4878 10570C4845 10568 4818 10565 4785 10562L5293 5295Z" fill="#0015ff" fill-rule="evenodd" opacity="1" stroke="none"/>
<path d="M5293 5295L5800 27C5832 30 5860 33 5892 37L5293 5295Z" fill="#ffe600" fill-rule="evenodd" opacity="1" stroke="none"/>
<path d="M5293 5295L4785 10562C4753 10559 4726 10556 4694 10553L5293 5295Z" fill="#0019ff" fill-rule="evenodd" opacity="1" stroke="none"/>
<path d="M5293 5295L5892 37C5924 40 5951 44 5983 48L5293 5295Z" fill="#ffe200" fill-rule="evenodd" opacity="1" stroke="none"/>
<path d="M5293 5295L4694 10553C4661 10549 4634 10546 4602 10541L5293 5295Z" fill="#001dff" fill-rule="evenodd" opacity="1" stroke="none"/>
<path d="M5293 5295L5983 48C6016 52 6043 56 6075 61L5293 5295Z" fill="#ffdd00" fill-rule="evenodd" opacity="1" stroke="none"/>
<path d="M5293 5295L4602 10541C4570 10537 4543 10533 4511 10529L5293 5295Z" fill="#0022ff" fill-rule="evenodd" opacity="1" stroke="none"/>
<path d="M5293 5295L6075 61C6107 66 6134 70 6166 75L5293 5295Z" fill="#ffd900" fill-rule="evenodd" opacity="1" stroke="none"/>
<path d="M5293 5295L4511 10529C4478 10524 4451 10519 4419 10514L5293 5295Z" fill="#0026ff" fill-rule="evenodd" opacity="1" stroke="none"/>
<path d="M5293 5295L6166 75C6198 81 6225 85 6257 91L5293 5295Z" fill="#ffd500" fill-rule="evenodd" opacity="1" stroke="none"/>
<path d="M5293 5295L4419 10514C4387 10509 4360 10504 4328 10498L5293 5295Z" fill="#002aff" fill-rule="evenodd" opacity="1" stroke="none"/>
<path d="M5293 5295L6257 91C6289 97 6316 102 6348 109L5293 5295Z" fill="#ffd100" fill-rule="evenodd" opacity="1" stroke="none"/>
<path d="M5293 5295L4328 10498C4296 10492 4269 10487 4238 10480L5293 5295Z" fill="#002eff" fill-rule="evenodd" opacity="1" stroke="none"/>
<path d="M5293 5295L6348 109C6380 115 6406 121 6438 128L5293 5295Z" fill="#ffcc00" fill-rule="evenodd" opacity="1" stroke="none"/>
<path d="M5293 5295L4238 10480C4206 10474 4179 10468 4147 10461L5293 5295Z" fill="#0033ff" fill-rule="evenodd" opacity="1" stroke="none"/>
<path d="M5293 5295L6438 128C6470 135 6497 141 6528 149L5293 5295Z" fill="#ffc800" fill-rule="evenodd" opacity="1" stroke="none"/>
<path d="M5293 5295L4147 10461C4116 10454 4089 10448 4057 10440L5293 5295Z" fill="#0037ff" fill-rule="evenodd" opacity="1" stroke="none"/>
<path d="M5293 5295L6528 149C6560 156 6586 163 6618 171L5293 5295Z" fill="#ffc400" fill-rule="evenodd" opacity="1" stroke="none"/>
<path d="M5293 5295L4057 10440C4026 10433 3999 10426 3968 10418L5293 5295Z" fill="#003bff" fill-rule="evenodd" opacity="1" stroke="none"/>
<path d="M5293 5295L6618 171C6649 179 6676 186 6707 195L5293 5295Z" fill="#ffc000" fill-rule="evenodd" opacity="1" stroke="none"/>
<path d="M5293 5295L3968 10418C3936 10410 3910 10403 3878 10394L5293 5295Z" fill="#003fff" fill-rule="evenodd" opacity="1" stroke="none"/>
<path d="M5293 5295L6707 195C6738 204 6765 211 6796 221L5293 5295Z" fill="#ffbb00" fill-rule="evenodd" opacity="1" stroke="none"/>
<path d="M5293 5295L3878 10394C3847 10386 3821 10378 3790 10369L5293 5295Z" fill="#0044ff" fill-rule="evenodd" opacity="1" stroke="none"/>
<path d="M5293 5295L6796 221C6827 230 6853 238 6884 248L5293 5295Z" fill="#ffb700" fill-rule="evenodd" opacity="1" stroke="none"/>
<path d="M5293 5295L3790 10369C3759 10360 3732 10351 3701 10342L5293 5295Z" fill="#0048ff" fill-rule="evenodd" opacity="1" stroke="none"/>
<path d="M5293 5295L6884 248C6915 257 6941 266 6972 276L5293 5295Z" fill="#ffb300" fill-rule="evenodd" opacity="1" stroke="none"/>
<path d="M5293 5295L3701 10342C3670 10332 3644 10323 3614 10313L5293 5295Z" fill="#004cff" fill-rule="evenodd" opacity="1" stroke="none"/>
<path d="M5293 5295L6972 276C7003 286 7029 295 7059 306L5293 5295Z" fill="#ffaf00" fill-rule="evenodd" opacity="1" stroke="none"/>
<path d="M5293 5295L3614 10313C3583 10303 3557 10294 3526 10283L5293 5295Z" fill="#0050ff" fill-rule="evenodd" opacity="1" stroke="none"/>
<path d="M5293 5295L7059 306C7090 317 7116 326 7146 338L5293 5295Z" fill="#ffaa00" fill-rule="evenodd" opacity="1" stroke="none"/>
<path d="M5293 5295L3526 10283C3496 10272 3470 10263 3439 10252L5293 5295Z" fill="#0055ff" fill-rule="evenodd" opacity="1" stroke="none"/>
<path d="M5293 5295L7146 338C7176 349 7202 359 7232 371L5293 5295Z" fill="#ffa600" fill-rule="evenodd" opacity="1" stroke="none"/>
<path d="M5293 5295L3439 10252C3409 10240 3383 10230 3353 10218L5293 5295Z" fill="#0059ff" fill-rule="evenodd" opacity="1" stroke="none"/>
<path d="M5293 5295L7232 371C7262 383 7288 393 7318 405L5293 5295Z" fill="#ffa200" fill-rule="evenodd" opacity="1" stroke="none"/>
<path d="M5293 5295L3353 10218C3323 10207 3298 10196 3268 10184L5293 5295Z" fill="#005dff" fill-rule="evenodd" opacity="1" stroke="none"/>
<path d="M5293 5295L7318 405C7348 418 7373 429 7403 442L5293 5295Z" fill="#ff9e00" fill-rule="evenodd" opacity="1" stroke="none"/>
<path d="M5293 5295L3268 10184C3238 10171 3212 10161 3183 10148L5293 5295Z" fill="#0061ff" fill-rule="evenodd" opacity="1" stroke="none"/>
<path d="M5293 5295L7403 442C7433 455 7458 466 7487 479L5293 5295Z" fill="#ff9900" fill-rule="evenodd" opacity="1" stroke="none"/>
<path d="M5293 5295L3183 10148C3153 10135 3128 10124 3098 10110L5293 5295Z" fill="#0066ff" fill-rule="evenodd" opacity="1" stroke="none"/>
<path d="M5293 5295L7487 479C7517 493 7542 504 7571 518L5293 5295Z" fill="#ff9500" fill-rule="evenodd" opacity="1" stroke="none"/>
<path d="M5293 5295L3098 10110C3069 10097 3044 10085 3014 10071L5293 5295Z" fill="#006aff" fill-rule="evenodd" opacity="1" stroke="none"/>
<path d="M5293 5295L7571 518C7600 532 7625 544 7654 559L5293 5295Z" fill="#ff9100" fill-rule="evenodd" opacity="1" stroke="none"/>
<path d="M5293 5295L3014 10071C2985 10057 2960 10045 2931 10031L5293 5295Z" fill="#006eff" fill-rule="evenodd" opacity="1" stroke="none"/>
<path d="M5293 5295L7654 559C7683 573 7707 586 7736 601L5293 5295Z" fill="#ff8d00" fill-rule="evenodd" opacity="1" stroke="none"/>
<path d="M5293 5295L2931 10031C2902 10016 2878 10004 2849 9989L5293 5295Z" fill="#0072ff" fill-rule="evenodd" opacity="1" stroke="none"/>
<path d="M5293 5295L7736 601C7765 616 7789 628 7818 644L5293 5295Z" fill="#ff8800" fill-rule="evenodd" opacity="1" stroke="none"/>
<path d="M5293 5295L2849 9989C2820 9974 2796 9961 2768 9945L5293 5295Z" fill="#0077ff" fill-rule="evenodd" opacity="1" stroke="none"/>
<path d="M5293 5295L7818 644C7846 659 7870 673 7899 689L5293 5295Z" fill="#ff8400" fill-rule="evenodd" opacity="1" stroke="none"/>
<path d="M5293 5295L2768 9945C2739 9930 2715 9917 2687 9901L5293 5295Z" fill="#007bff" fill-rule="evenodd" opacity="1" stroke="none"/>
<path d="M5293 5295L7899 689C7927 705 7951 718 7979 735L5293 5295Z" fill="#ff8000" fill-rule="evenodd" opacity="1" stroke="none"/>
<path d="M5293 5295L2687 9901C2659 9885 2635 9871 2607 9854L5293 5295Z" fill="#007fff" fill-rule="evenodd" opacity="1" stroke="none"/>
<path d="M5293 5295L7979 735C8007 751 8030 766 8058 782L5293 5295Z" fill="#ff7c00" fill-rule="evenodd" opacity="1" stroke="none"/>
<path d="M5293 5295L2607 9854C2579 9838 2555 9824 2528 9807L5293 5295Z" fill="#0083ff" fill-rule="evenodd" opacity="1" stroke="none"/>
<path d="M5293 5295L8058 782C8085 799 8109 814 8136 831L5293 5295Z" fill="#ff7700" fill-rule="evenodd" opacity="1" stroke="none"/>
<path d="M5293 5295L2528 9807C2500 9790 2477 9775 2449 9758L5293 5295Z" fill="#0088ff" fill-rule="evenodd" opacity="1" stroke="none"/>
<path d="M5293 5295L8136 831C8163 849 8186 864 8214 882L5293 5295Z" fill="#ff7300" fill-rule="evenodd" opacity="1" stroke="none"/>
<path d="M5293 5295L2449 9758C2422 9740 2399 9726 2372 9708L5293 5295Z" fill="#008cff" fill-rule="evenodd" opacity="1" stroke="none"/>
<path d="M5293 5295L8214 882C8241 900 8263 915 8290 933L5293 5295Z" fill="#ff6f00" fill-rule="evenodd" opacity="1" stroke="none"/>
<path d="M5293 5295L2372 9708C2345 9690 2322 9674 2295 9656L5293 5295Z" fill="#0090ff" fill-rule="evenodd" opacity="1" stroke="none"/>
<path d="M5293 5295L8290 933C8317 952 8339 968 8366 986L5293 5295Z" fill="#ff6b00" fill-rule="evenodd" opacity="1" stroke="none"/>
<path d="M5293 5295L2295 9656C2269 9638 2246 9622 2220 9603L5293 5295Z" fill="#0094ff" fill-rule="evenodd" opacity="1" stroke="none"/>
<path d="M5293 5295L8366 986C8392 1005 8414 1021 8441 1041L5293 5295Z" fill="#ff6600" fill-rule="evenodd" opacity="1" stroke="none"/>
<path d="M5293 5295L2220 9603C2193 9584 2171 9568 2145 9549L5293 5295Z" fill="#0099ff" fill-rule="evenodd" opacity="1" stroke="none"/>
<path d="M5293 5295L8441 1041C8467 1060 8489 1076 8514 1096L5293 5295Z" fill="#ff6200" fill-rule="evenodd" opacity="1" stroke="none"/>
<path d="M5293 5295L2145 9549C2119 9529 2097 9513 2071 9493L5293 5295Z" fill="#009dff" fill-rule="evenodd" opacity="1" stroke="none"/>
<path d="M5293 5295L8514 1096C8540 1116 8562 1133 8587 1153L5293 5295Z" fill="#ff5e00" fill-rule="evenodd" opacity="1" stroke="none"/>
<path d="M5293 5295L2071 9493C2045 9473 2024 9456 1998 9436L5293 5295Z" fill="#00a1ff" fill-rule="evenodd" opacity="1" stroke="none"/>
<path d="M5293 5295L8587 1153C8612 1173 8634 1191 8659 1211L5293 5295Z" fill="#ff5a00" fill-rule="evenodd" opacity="1" stroke="none"/>
<path d="M5293 5295L1998 9436C1973 9416 1952 9399 1927 9378L5293 5295Z" fill="#00a5ff" fill-rule="evenodd" opacity="1" stroke="none"/>
<path d="M5293 5295L8659 1211C8684 1232 8705 1249 8730 1271L5293 5295Z" fill="#ff5500" fill-rule="evenodd" opacity="1" stroke="none"/>
<path d="M5293 5295L1927 9378C1902 9357 1881 9340 1856 9319L5293 5295Z" fill="#00aaff" fill-rule="evenodd" opacity="1" stroke="none"/>
<path d="M5293 5295L8730 1271C8754 1292 8775 1310 8799 1331L5293 5295Z" fill="#ff5100" fill-rule="evenodd" opacity="1" stroke="none"/>
<path d="M5293 5295L1856 9319C1831 9298 1810 9280 1786 9258L5293 5295Z" fill="#00aeff" fill-rule="evenodd" opacity="1" stroke="none"/>
<path d="M5293 5295L8799 1331C8824 1353 8844 1371 8868 1393L5293 5295Z" fill="#ff4d00" fill-rule="evenodd" opacity="1" stroke="none"/>
<path d="M5293 5295L1786 9258C1762 9237 1741 9218 1717 9196L5293 5295Z" fill="#00b2ff" fill-rule="evenodd" opacity="1" stroke="none"/>
<path d="M5293 5295L8868 1393C8892 1415 8912 1434 8935 1456L5293 5295Z" fill="#ff4900" fill-rule="evenodd" opacity="1" stroke="none"/>
<path d="M5293 5295L1717 9196C1694 9174 1673 9156 1650 9133L5293 5295Z" fill="#00b6ff" fill-rule="evenodd" opacity="1" stroke="none"/>
<path d="M5293 5295L8935 1456C8959 1478 8979 1497 9002 1520L5293 5295Z" fill="#ff4400" fill-rule="evenodd" opacity="1" stroke="none"/>
<path d="M5293 5295L1650 9133C1626 9111 1607 9092 1584 9069L5293 5295Z" fill="#00bbff" fill-rule="evenodd" opacity="1" stroke="none"/>
<path d="M5293 5295L9002 1520L9067 1585L5293 5295Z" fill="#ff4000" fill-rule="evenodd" opacity="1" stroke="none"/>
<path d="M5293 5295L1584 9069C1560 9046 1541 9027 1518 9004L5293 5295Z" fill="#00bfff" fill-rule="evenodd" opacity="1" stroke="none"/>
<path d="M5293 5295L9067 1585C9090 1609 9109 1628 9131 1652L5293 5295Z" fill="#ff3c00" fill-rule="evenodd" opacity="1" stroke="none"/>
<path d="M5293 5295L1518 9004C1495 8981 1476 8961 1454 8937L5293 5295Z" fill="#00c3ff" fill-rule="evenodd" opacity="1" stroke="none"/>
<path d="M5293 5295L9131 1652C9154 1675 9172 1695 9194 1719L5293 5295Z" fill="#ff3800" fill-rule="evenodd" opacity="1" stroke="none"/>
<path d="M5293 5295L1454 8937C1432 8914 1413 8894 1391 8870L5293 5295Z" fill="#00c7ff" fill-rule="evenodd" opacity="1" stroke="none"/>
<path d="M5293 5295L9194 1719C9216 1743 9235 1764 9256 1788L5293 5295Z" fill="#ff3300" fill-rule="evenodd" opacity="1" stroke="none"/>
<path d="M5293 5295L1391 8870C1369 8846 1351 8826 1329 8801L5293 5295Z" fill="#00ccff" fill-rule="evenodd" opacity="1" stroke="none"/>
<path d="M5293 5295L9256 1788C9278 1812 9296 1833 9317 1858L5293 5295Z" fill="#ff2f00" fill-rule="evenodd" opacity="1" stroke="none"/>
<path d="M5293 5295L1329 8801C1308 8777 1290 8756 1269 8732L5293 5295Z" fill="#00d0ff" fill-rule="evenodd" opacity="1" stroke="none"/>
<path d="M5293 5295L9317 1858C9338 1882 9355 1903 9376 1929L5293 5295Z" fill="#ff2b00" fill-rule="evenodd" opacity="1" stroke="none"/>
<path d="M5293 5295L1269 8732C1248 8707 1230 8686 1209 8661L5293 5295Z" fill="#00d4ff" fill-rule="evenodd" opacity="1" stroke="none"/>
<path d="M5293 5295L9376 1929C9397 1954 9414 1975 9434 2000L5293 5295Z" fill="#ff2700" fill-rule="evenodd" opacity="1" stroke="none"/>
<path d="M5293 5295L1209 8661C1189 8636 1171 8614 1151 8589L5293 5295Z" fill="#00d8ff" fill-rule="evenodd" opacity="1" stroke="none"/>
<path d="M5293 5295L9434 2000C9454 2026 9471 2047 9491 2073L5293 5295Z" fill="#ff2200" fill-rule="evenodd" opacity="1" stroke="none"/>
<path d="M5293 5295L1151 8589C1131 8564 1114 8542 1094 8516L5293 5295Z" fill="#00ddff" fill-rule="evenodd" opacity="1" stroke="none"/>
<path d="M5293 5295L9491 2073C9511 2099 9527 2121 9547 2147L5293 5295Z" fill="#ff1e00" fill-rule="evenodd" opacity="1" stroke="none"/>
<path d="M5293 5295L1094 8516C1075 8490 1058 8469 1039 8442L5293 5295Z" fill="#00e1ff" fill-rule="evenodd" opacity="1" stroke="none"/>
<path d="M5293 5295L9547 2147C9566 2173 9582 2195 9601 2222L5293 5295Z" fill="#ff1a00" fill-rule="evenodd" opacity="1" stroke="none"/>
<path d="M5293 5295L1039 8442C1019 8416 1003 8394 984 8368L5293 5295Z" fill="#00e5ff" fill-rule="evenodd" opacity="1" stroke="none"/>
<path d="M5293 5295L9601 2222C9620 2248 9636 2270 9654 2297L5293 5295Z" fill="#ff1600" fill-rule="evenodd" opacity="1" stroke="none"/>
<path d="M5293 5295L984 8368C966 8341 950 8319 931 8292L5293 5295Z" fill="#00e9ff" fill-rule="evenodd" opacity="1" stroke="none"/>
<path d="M5293 5295L9654 2297C9672 2324 9688 2347 9706 2374L5293 5295Z" fill="#ff1100" fill-rule="evenodd" opacity="1" stroke="none"/>
<path d="M5293 5295L931 8292C913 8265 898 8243 880 8216L5293 5295Z" fill="#00eeff" fill-rule="evenodd" opacity="1" stroke="none"/>
<path d="M5293 5295L9706 2374C9724 2401 9738 2424 9756 2451L5293 5295Z" fill="#ff0d00" fill-rule="evenodd" opacity="1" stroke="none"/>
<path d="M5293 5295L880 8216C862 8188 847 8165 829 8138L5293 5295Z" fill="#00f2ff" fill-rule="evenodd" opacity="1" stroke="none"/>
<path d="M5293 5295L9756 2451C9773 2479 9788 2502 9805 2530L5293 5295Z" fill="#ff0900" fill-rule="evenodd" opacity="1" stroke="none"/>
<path d="M5293 5295L829 8138C812 8111 798 8087 781 8060L5293 5295Z" fill="#00f6ff" fill-rule="evenodd" opacity="1" stroke="none"/>
<path d="M5293 5295L9805 2530C9822 2557 9836 2581 9852 2609L5293 5295Z" fill="#ff0500" fill-rule="evenodd" opacity="1" stroke="none"/>
<path d="M5293 5295L781 8060C764 8032 749 8009 733 7981L5293 5295Z" fill="#00faff" fill-rule="evenodd" opacity="1" stroke="none"/>
<path d="M5293 5295L9852 2609C9869 2637 9883 2660 9899 2689L5293 5295Z" fill="#ff0000" fill-rule="evenodd" opacity="1" stroke="none"/>
<path d="M5293 5295L733 7981C716 7953 703 7929 687 7901L5293 5295Z" fill="#00ffff" fill-rule="evenodd" opacity="1" stroke="none"/>
<path d="M5293 5295L9899 2689C9915 2717 9928 2741 9943 2770L5293 5295Z" fill="#ff0004" fill-rule="evenodd" opacity="1" stroke="none"/>
<path d="M5293 5295L687 7901C671 7872 658 7848 642 7820L5293 5295Z" fill="#00fffb" fill-rule="evenodd" opacity="1" stroke="none"/>
<path d="M5293 5295L9943 2770C9959 2798 9972 2822 9987 2851L5293 5295Z" fill="#ff0008" fill-rule="evenodd" opacity="1" stroke="none"/>
<path d="M5293 5295L642 7820C627 7791 614 7767 599 7738L5293 5295Z" fill="#00fff7" fill-rule="evenodd" opacity="1" stroke="none"/>
<path d="M5293 5295L9987 2851C10002 2880 10014 2904 10029 2933L5293 5295Z" fill="#ff000c" fill-rule="evenodd" opacity="1" stroke="none"/>
<path d="M5293 5295L599 7738C584 7709 571 7685 557 7656L5293 5295Z" fill="#00fff3" fill-rule="evenodd" opacity="1" stroke="none"/>
<path d="M5293 5295L10029 2933C10043 2962 10055 2987 10069 3016L5293 5295Z" fill="#ff0011" fill-rule="evenodd" opacity="1" stroke="none"/>
<path d="M5293 5295L557 7656C542 7627 530 7602 516 7573L5293 5295Z" fill="#00ffee" fill-rule="evenodd" opacity="1" stroke="none"/>
<path d="M5293 5295L10069 3016C10083 3046 10095 3071 10108 3100L5293 5295Z" fill="#ff0015" fill-rule="evenodd" opacity="1" stroke="none"/>
<path d="M5293 5295L516 7573C502 7544 491 7519 477 7489L5293 5295Z" fill="#00ffea" fill-rule="evenodd" opacity="1" stroke="none"/>
<path d="M5293 5295L10108 3100C10122 3130 10133 3155 10146 3184L5293 5295Z" fill="#ff0019" fill-rule="evenodd" opacity="1" stroke="none"/>
<path d="M5293 5295L477 7489C464 7460 453 7435 440 7405L5293 5295Z" fill="#00ffe6" fill-rule="evenodd" opacity="1" stroke="none"/>
<path d="M5293 5295L10146 3184C10159 3214 10169 3239 10182 3269L5293 5295Z" fill="#ff001d" fill-rule="evenodd" opacity="1" stroke="none"/>
<path d="M5293 5295L440 7405C427 7375 416 7350 404 7320L5293 5295Z" fill="#00ffe2" fill-rule="evenodd" opacity="1" stroke="none"/>
<path d="M5293 5295L10182 3269C10194 3299 10205 3325 10216 3355L5293 5295Z" fill="#ff0022" fill-rule="evenodd" opacity="1" stroke="none"/>
<path d="M5293 5295L404 7320C391 7290 381 7264 369 7234L5293 5295Z" fill="#00ffdd" fill-rule="evenodd" opacity="1" stroke="none"/>
<path d="M5293 5295L10216 3355C10228 3385 10238 3411 10250 3441L5293 5295Z" fill="#ff0026" fill-rule="evenodd" opacity="1" stroke="none"/>
<path d="M5293 5295L369 7234C357 7204 347 7178 336 7148L5293 5295Z" fill="#00ffd9" fill-rule="evenodd" opacity="1" stroke="none"/>
<path d="M5293 5295L10250 3441C10261 3472 10270 3498 10281 3528L5293 5295Z" fill="#ff002a" fill-rule="evenodd" opacity="1" stroke="none"/>
<path d="M5293 5295L336 7148C324 7118 315 7092 304 7061L5293 5295Z" fill="#00ffd5" fill-rule="evenodd" opacity="1" stroke="none"/>
<path d="M5293 5295L10281 3528C10292 3559 10301 3585 10311 3615L5293 5295Z" fill="#ff002e" fill-rule="evenodd" opacity="1" stroke="none"/>
<path d="M5293 5295L304 7061C293 7031 284 7005 274 6974L5293 5295Z" fill="#00ffd1" fill-rule="evenodd" opacity="1" stroke="none"/>
<path d="M5293 5295L10311 3615C10322 3646 10330 3672 10340 3703L5293 5295Z" fill="#ff0033" fill-rule="evenodd" opacity="1" stroke="none"/>
<path d="M5293 5295L274 6974C264 6943 255 6917 246 6886L5293 5295Z" fill="#00ffcc" fill-rule="evenodd" opacity="1" stroke="none"/>
<path d="M5293 5295L10340 3703C10350 3734 10358 3761 10367 3792L5293 5295Z" fill="#ff0037" fill-rule="evenodd" opacity="1" stroke="none"/>
<path d="M5293 5295L246 6886C236 6855 228 6829 219 6798L5293 5295Z" fill="#00ffc8" fill-rule="evenodd" opacity="1" stroke="none"/>
<path d="M5293 5295L10367 3792C10376 3823 10384 3849 10392 3880L5293 5295Z" fill="#ff003b" fill-rule="evenodd" opacity="1" stroke="none"/>
<path d="M5293 5295L219 6798C209 6767 202 6740 193 6709L5293 5295Z" fill="#00ffc4" fill-rule="evenodd" opacity="1" stroke="none"/>
<path d="M5293 5295L10392 3880C10401 3912 10408 3938 10416 3970L5293 5295Z" fill="#ff003f" fill-rule="evenodd" opacity="1" stroke="none"/>
<path d="M5293 5295L193 6709C185 6678 177 6651 169 6620L5293 5295Z" fill="#00ffc0" fill-rule="evenodd" opacity="1" stroke="none"/>
<path d="M5293 5295L10416 3970C10424 4001 10431 4028 10438 4059L5293 5295Z" fill="#ff0044" fill-rule="evenodd" opacity="1" stroke="none"/>
<path d="M5293 5295L169 6620C161 6588 155 6562 147 6530L5293 5295Z" fill="#00ffbb" fill-rule="evenodd" opacity="1" stroke="none"/>
<path d="M5293 5295L10438 4059C10446 4091 10452 4118 10459 4149L5293 5295Z" fill="#ff0048" fill-rule="evenodd" opacity="1" stroke="none"/>
<path d="M5293 5295L147 6530C139 6498 133 6472 126 6440L5293 5295Z" fill="#00ffb7" fill-rule="evenodd" opacity="1" stroke="none"/>
<path d="M5293 5295L10459 4149C10466 4181 10472 4208 10478 4240L5293 5295Z" fill="#ff004c" fill-rule="evenodd" opacity="1" stroke="none"/>
<path d="M5293 5295L126 6440C119 6408 113 6382 107 6350L5293 5295Z" fill="#00ffb3" fill-rule="evenodd" opacity="1" stroke="none"/>
<path d="M5293 5295L10478 4240C10485 4271 10490 4298 10496 4330L5293 5295Z" fill="#ff0050" fill-rule="evenodd" opacity="1" stroke="none"/>
<path d="M5293 5295L107 6350C100 6318 95 6291 89 6259L5293 5295Z" fill="#00ffaf" fill-rule="evenodd" opacity="1" stroke="none"/>
<path d="M5293 5295L10496 4330C10502 4362 10507 4389 10512 4421L5293 5295Z" fill="#ff0055" fill-rule="evenodd" opacity="1" stroke="none"/>
<path d="M5293 5295L89 6259C83 6227 79 6200 73 6168L5293 5295Z" fill="#00ffaa" fill-rule="evenodd" opacity="1" stroke="none"/>
<path d="M5293 5295L10512 4421C10517 4453 10522 4480 10527 4512L5293 5295Z" fill="#ff0059" fill-rule="evenodd" opacity="1" stroke="none"/>
<path d="M5293 5295L73 6168C68 6136 64 6109 59 6077L5293 5295Z" fill="#00ffa6" fill-rule="evenodd" opacity="1" stroke="none"/>
<path d="M5293 5295L10527 4512C10531 4545 10535 4572 10539 4604L5293 5295Z" fill="#ff005d" fill-rule="evenodd" opacity="1" stroke="none"/>
<path d="M5293 5295L59 6077C54 6045 50 6018 46 5985L5293 5295Z" fill="#00ffa2" fill-rule="evenodd" opacity="1" stroke="none"/>
<path d="M5293 5295L10539 4604C10544 4636 10547 4663 10551 4696L5293 5295Z" fill="#ff0061" fill-rule="evenodd" opacity="1" stroke="none"/>
<path d="M5293 5295L46 5985C42 5953 38 5926 35 5894L5293 5295Z" fill="#00ff9e" fill-rule="evenodd" opacity="1" stroke="none"/>
<path d="M5293 5295L10551 4696C10554 4728 10557 4755 10560 4787L5293 5295Z" fill="#ff0066" fill-rule="evenodd" opacity="1" stroke="none"/>
<path d="M5293 5295L35 5894C31 5861 28 5834 25 5802L5293 5295Z" fill="#00ff99" fill-rule="evenodd" opacity="1" stroke="none"/>
<path d="M5293 5295L10560 4787C10563 4820 10566 4847 10568 4879L5293 5295Z" fill="#ff006a" fill-rule="evenodd" opacity="1" stroke="none"/>
<path d="M5293 5295L25 5802C22 5770 20 5742 17 5710L5293 5295Z" fill="#00ff95" fill-rule="evenodd" opacity="1" stroke="none"/>
<path d="M5293 5295L10568 4879C10571 4912 10573 4939 10575 4972L5293 5295Z" fill="#ff006e" fill-rule="evenodd" opacity="1" stroke="none"/>
<path d="M5293 5295L17 5710C14 5677 13 5650 11 5618L5293 5295Z" fill="#00ff91" fill-rule="evenodd" opacity="1" stroke="none"/>
<path d="M5293 5295L10575 4972C10577 5004 10578 5031 10580 5064L5293 5295Z" fill="#ff0072" fill-rule="evenodd" opacity="1" stroke="none"/>
<path d="M5293 5295L11 5618C9 5585 7 5558 6 5525L5293 5295Z" fill="#00ff8d" fill-rule="evenodd" opacity="1" stroke="none"/>
<path d="M5293 5295L10580 5064C10581 5096 10582 5124 10583 5156L5293 5295Z" fill="#ff0077" fill-rule="evenodd" opacity="1" stroke="none"/>
<path d="M5293 5295L6 5525C4 5493 3 5466 3 5433L5293 5295Z" fill="#00ff88" fill-rule="evenodd" opacity="1" stroke="none"/>
<path d="M5293 5295L10583 5156C10584 5189 10584 5216 10585 5248L5293 5295Z" fill="#ff007b" fill-rule="evenodd" opacity="1" stroke="none"/>
<path d="M5293 5295L3 5433C2 5401 1 5373 1 5341L5293 5295Z" fill="#00ff84" fill-rule="evenodd" opacity="1" stroke="none"/>
<path d="M5293 5295L10585 5248L10585 5341L5293 5295Z" fill="#ff007f" fill-rule="evenodd" opacity="1" stroke="none"/>
<path d="M5293 5295L1 5341L1 5248L5293 5295Z" fill="#00ff80" fill-rule="evenodd" opacity="1" stroke="none"/>
<path d="M5293 5295L10585 5341C10584 5373 10584 5401 10583 5433L5293 5295Z" fill="#ff0083" fill-rule="evenodd" opacity="1" stroke="none"/>
<path d="M5293 5295L1 5248C1 5216 2 5189 3 5156L5293 5295Z" fill="#00ff7c" fill-rule="evenodd" opacity="1" stroke="none"/>
<path d="M5293 5295L10583 5433C10582 5466 10581 5493 10580 5525L5293 5295Z" fill="#ff0088" fill-rule="evenodd" opacity="1" stroke="none"/>
<path d="M5293 5295L3 5156C3 5124 4 5096 6 5064L5293 5295Z" fill="#00ff77" fill-rule="evenodd" opacity="1" stroke="none"/>
<path d="M5293 5295L10580 5525C10578 5558 10577 5585 10575 5618L5293 5295Z" fill="#ff008c" fill-rule="evenodd" opacity="1" stroke="none"/>
<path d="M5293 5295L6 5064C7 5031 9 5004 11 4972L5293 5295Z" fill="#00ff73" fill-rule="evenodd" opacity="1" stroke="none"/>
<path d="M5293 5295L10575 5618C10573 5650 10571 5677 10568 5710L5293 5295Z" fill="#ff0090" fill-rule="evenodd" opacity="1" stroke="none"/>
<path d="M5293 5295L11 4972C13 4939 14 4912 17 4879L5293 5295Z" fill="#00ff6f" fill-rule="evenodd" opacity="1" stroke="none"/>
<path d="M5293 5295L10568 5710C10566 5742 10563 5770 10560 5802L5293 5295Z" fill="#ff0094" fill-rule="evenodd" opacity="1" stroke="none"/>
<path d="M5293 5295L17 4879C20 4847 22 4820 25 4787L5293 5295Z" fill="#00ff6b" fill-rule="evenodd" opacity="1" stroke="none"/>
<path d="M5293 5295L10560 5802C10557 5834 10554 5861 10551 5894L5293 5295Z" fill="#ff0099" fill-rule="evenodd" opacity="1" stroke="none"/>
<path d="M5293 5295L25 4787C28 4755 31 4728 35 4696L5293 5295Z" fill="#00ff66" fill-rule="evenodd" opacity="1" stroke="none"/>
<path d="M5293 5295L10551 5894C10547 5926 10544 5953 10539 5985L5293 5295Z" fill="#ff009d" fill-rule="evenodd" opacity="1" stroke="none"/>
<path d="M5293 5295L35 4696C38 4663 42 4636 46 4604L5293 5295Z" fill="#00ff62" fill-rule="evenodd" opacity="1" stroke="none"/>
<path d="M5293 5295L10539 5985C10535 6018 10531 6045 10527 6077L5293 5295Z" fill="#ff00a1" fill-rule="evenodd" opacity="1" stroke="none"/>
<path d="M5293 5295L46 4604C50 4572 54 4545 59 4512L5293 5295Z" fill="#00ff5e" fill-rule="evenodd" opacity="1" stroke="none"/>
<path d="M5293 5295L10527 6077C10522 6109 10517 6136 10512 6168L5293 5295Z" fill="#ff00a5" fill-rule="evenodd" opacity="1" stroke="none"/>
<path d="M5293 5295L59 4512C64 4480 68 4453 73 4421L5293 5295Z" fill="#00ff5a" fill-rule="evenodd" opacity="1" stroke="none"/>
<path d="M5293 5295L10512 6168C10507 6200 10502 6227 10496 6259L5293 5295Z" fill="#ff00aa" fill-rule="evenodd" opacity="1" stroke="none"/>
<path d="M5293 5295L73 4421C79 4389 83 4362 89 4330L5293 5295Z" fill="#00ff55" fill-rule="evenodd" opacity="1" stroke="none"/>
<path d="M5293 5295L10496 6259C10490 6291 10485 6318 10478 6350L5293 5295Z" fill="#ff00ae" fill-rule="evenodd" opacity="1" stroke="none"/>
<path d="M5293 5295L89 4330C95 4298 100 4271 107 4240L5293 5295Z" fill="#00ff51" fill-rule="evenodd" opacity="1" stroke="none"/>
<path d="M5293 5295L10478 6350C10472 6382 10466 6408 10459 6440L5293 5295Z" fill="#ff00b2" fill-rule="evenodd" opacity="1" stroke="none"/>
<path d="M5293 5295L107 4240C113 4208 119 4181 126 4149L5293 5295Z" fill="#00ff4d" fill-rule="evenodd" opacity="1" stroke="none"/>
<path d="M5293 5295L10459 6440C10452 6472 10446 6498 10438 6530L5293 5295Z" fill="#ff00b6" fill-rule="evenodd" opacity="1" stroke="none"/>
<path d="M5293 5295L126 4149C133 4118 139 4091 147 4059L5293 5295Z" fill="#00ff49" fill-rule="evenodd" opacity="1" stroke="none"/>
<path d="M5293 5295L10438 6530C10431 6562 10424 6588 10416 6620L5293 5295Z" fill="#ff00bb" fill-rule="evenodd" opacity="1" stroke="none"/>
<path d="M5293 5295L147 4059C155 4028 161 4001 169 3970L5293 5295Z" fill="#00ff44" fill-rule="evenodd" opacity="1" stroke="none"/>
<path d="M5293 5295L10416 6620C10408 6651 10401 6678 10392 6709L5293 5295Z" fill="#ff00bf" fill-rule="evenodd" opacity="1" stroke="none"/>
<path d="M5293 5295L169 3970C177 3938 185 3912 193 3880L5293 5295Z" fill="#00ff40" fill-rule="evenodd" opacity="1" stroke="none"/>
<path d="M5293 5295L10392 6709C10384 6740 10376 6767 10367 6798L5293 5295Z" fill="#ff00c3" fill-rule="evenodd" opacity="1" stroke="none"/>
<path d="M5293 5295L193 3880C202 3849 209 3823 219 3792L5293 5295Z" fill="#00ff3c" fill-rule="evenodd" opacity="1" stroke="none"/>
<path d="M5293 5295L10367 6798C10358 6829 10350 6855 10340 6886L5293 5295Z" fill="#ff00c7" fill-rule="evenodd" opacity="1" stroke="none"/>
<path d="M5293 5295L219 3792C228 3761 236 3734 246 3703L5293 5295Z" fill="#00ff38" fill-rule="evenodd" opacity="1" stroke="none"/>
<path d="M5293 5295L10340 6886C10330 6917 10322 6943 10311 6974L5293 5295Z" fill="#ff00cc" fill-rule="evenodd" opacity="1" stroke="none"/>
<path d="M5293 5295L246 3703C255 3672 264 3646 274 3615L5293 5295Z" fill="#00ff33" fill-rule="evenodd" opacity="1" stroke="none"/>
<path d="M5293 5295L10311 6974C10301 7005 10292 7031 10281 7061L5293 5295Z" fill="#ff00d0" fill-rule="evenodd" opacity="1" stroke="none"/>
<path d="M5293 5295L274 3615C284 3585 293 3559 304 3528L5293 5295Z" fill="#00ff2f" fill-rule="evenodd" opacity="1" stroke="none"/>
<path d="M5293 5295L10281 7061C10270 7092 10261 7118 10250 7148L5293 5295Z" fill="#ff00d4" fill-rule="evenodd" opacity="1" stroke="none"/>
<path d="M5293 5295L304 3528C315 3498 324 3472 336 3441L5293 5295Z" fill="#00ff2b" fill-rule="evenodd" opacity="1" stroke="none"/>
<path d="M5293 5295L10250 7148C10238 7178 10228 7204 10216 7234L5293 5295Z" fill="#ff00d8" fill-rule="evenodd" opacity="1" stroke="none"/>
<path d="M5293 5295L336 3441C347 3411 357 3385 369 3355L5293 5295Z" fill="#00ff27" fill-rule="evenodd" opacity="1" stroke="none"/>
<path d="M5293 5295L10216 7234C10205 7264 10194 7290 10182 7320L5293 5295Z" fill="#ff00dd" fill-rule="evenodd" opacity="1" stroke="none"/>
<path d="M5293 5295L369 3355C381 3325 391 3299 404 3269L5293 5295Z" fill="#00ff22" fill-rule="evenodd" opacity="1" stroke="none"/>
<path d="M5293 5295L10182 7320C10169 7350 10159 7375 10146 7405L5293 5295Z" fill="#ff00e1" fill-rule="evenodd" opacity="1" stroke="none"/>
<path d="M5293 5295L404 3269C416 3239 427 3214 440 3184L5293 5295Z" fill="#00ff1e" fill-rule="evenodd" opacity="1" stroke="none"/>
<path d="M5293 5295L10146 7405C10133 7435 10122 7460 10108 7489L5293 5295Z" fill="#ff00e5" fill-rule="evenodd" opacity="1" stroke="none"/>
<path d="M5293 5295L440 3184C453 3155 464 3130 477 3100L5293 5295Z" fill="#00ff1a" fill-rule="evenodd" opacity="1" stroke="none"/>
<path d="M5293 5295L10108 7489C10095 7519 10083 7544 10069 7573L5293 5295Z" fill="#ff00e9" fill-rule="evenodd" opacity="1" stroke="none"/>
<path d="M5293 5295L477 3100C491 3071 502 3046 516 3016L5293 5295Z" fill="#00ff16" fill-rule="evenodd" opacity="1" stroke="none"/>
<path d="M5293 5295L10069 7573C10055 7602 10043 7627 10029 7656L5293 5295Z" fill="#ff00ee" fill-rule="evenodd" opacity="1" stroke="none"/>
<path d="M5293 5295L516 3016C530 2987 542 2962 557 2933L5293 5295Z" fill="#00ff11" fill-rule="evenodd" opacity="1" stroke="none"/>
<path d="M5293 5295L10029 7656C10014 7685 10002 7709 9987 7738L5293 5295Z" fill="#ff00f2" fill-rule="evenodd" opacity="1" stroke="none"/>
<path d="M5293 5295L557 2933C571 2904 584 2880 599 2851L5293 5295Z" fill="#00ff0d" fill-rule="evenodd" opacity="1" stroke="none"/>
<path d="M5293 5295L9987 7738C9972 7767 9959 7791 9943 7820L5293 5295Z" fill="#ff00f6" fill-rule="evenodd" opacity="1" stroke="none"/>
<path d="M5293 5295L599 2851C614 2822 627 2798 642 2770L5293 5295Z" fill="#00ff09" fill-rule="evenodd" opacity="1" stroke="none"/>
<path d="M5293 5295L9943 7820C9928 7848 9915 7872 9899 7901L5293 5295Z" fill="#ff00fa" fill-rule="evenodd" opacity="1" stroke="none"/>
<path d="M5293 5295L642 2770C658 2741 671 2717 687 2689L5293 5295Z" fill="#00ff05" fill-rule="evenodd" opacity="1" stroke="none"/>
<path d="M5293 5295L9899 7901C9883 7929 9869 7953 9852 7981L5293 5295Z" fill="#ff00ff" fill-rule="evenodd" opacity="1" stroke="none"/>
<path d="M5293 5295L687 2689C703 2660 716 2637 733 2609L5293 5295Z" fill="#00ff00" fill-rule="evenodd" opacity="1" stroke="none"/>
<path d="M5293 5295L9852 7981C9836 8009 9822 8032 9805 8060L5293 5295Z" fill="#fb00ff" fill-rule="evenodd" opacity="1" stroke="none"/>
<path d="M5293 5295L733 2609C749 2581 764 2557 781 2530L5293 5295Z" fill="#04ff00" fill-rule="evenodd" opacity="1" stroke="none"/>
<path d="M5293 5295L9805 8060C9788 8087 9773 8111 9756 8138L5293 5295Z" fill="#f700ff" fill-rule="evenodd" opacity="1" stroke="none"/>
<path d="M5293 5295L781 2530C798 2502 812 2479 829 2451L5293 5295Z" fill="#08ff00" fill-rule="evenodd" opacity="1" stroke="none"/>
<path d="M5293 5295L9756 8138C9738 8165 9724 8188 9706 8216L5293 5295Z" fill="#f300ff" fill-rule="evenodd" opacity="1" stroke="none"/>
<path d="M5293 5295L829 2451C847 2424 862 2401 880 2374L5293 5295Z" fill="#0cff00" fill-rule="evenodd" opacity="1" stroke="none"/>
<path d="M5293 5295L9706 8216C9688 8243 9672 8265 9654 8292L5293 5295Z" fill="#ee00ff" fill-rule="evenodd" opacity="1" stroke="none"/>
<path d="M5293 5295L880 2374C898 2347 913 2324 931 2297L5293 5295Z" fill="#11ff00" fill-rule="evenodd" opacity="1" stroke="none"/>
<path d="M5293 5295L9654 8292C9636 8319 9620 8341 9601 8368L5293 5295Z" fill="#ea00ff" fill-rule="evenodd" opacity="1" stroke="none"/>
<path d="M5293 5295L931 2297C950 2270 966 2248 984 2222L5293 5295Z" fill="#15ff00" fill-rule="evenodd" opacity="1" stroke="none"/>
<path d="M5293 5295L9601 8368C9582 8394 9566 8416 9547 8442L5293 5295Z" fill="#e600ff" fill-rule="evenodd" opacity="1" stroke="none"/>
<path d="M5293 5295L984 2222C1003 2195 1019 2173 1039 2147L5293 5295Z" fill="#19ff00" fill-rule="evenodd" opacity="1" stroke="none"/>
<path d="M5293 5295L9547 8442C9527 8469 9511 8490 9491 8516L5293 5295Z" fill="#e200ff" fill-rule="evenodd" opacity="1" stroke="none"/>
<path d="M5293 5295L1039 2147C1058 2121 1075 2099 1094 2073L5293 5295Z" fill="#1dff00" fill-rule="evenodd" opacity="1" stroke="none"/>
<path d="M5293 5295L9491 8516C9471 8542 9454 8564 9434 8589L5293 5295Z" fill="#dd00ff" fill-rule="evenodd" opacity="1" stroke="none"/>
<path d="M5293 5295L1094 2073C1114 2047 1131 2026 1151 2000L5293 5295Z" fill="#22ff00" fill-rule="evenodd" opacity="1" stroke="none"/>
<path d="M5293 5295L9434 8589C9414 8614 9397 8636 9376 8661L5293 5295Z" fill="#d900ff" fill-rule="evenodd" opacity="1" stroke="none"/>
<path d="M5293 5295L1151 2000C1171 1975 1189 1954 1209 1929L5293 5295Z" fill="#26ff00" fill-rule="evenodd" opacity="1" stroke="none"/>
<path d="M5293 5295L9376 8661C9355 8686 9338 8707 9317 8732L5293 5295Z" fill="#d500ff" fill-rule="evenodd" opacity="1" stroke="none"/>
<path d="M5293 5295L1209 1929C1230 1903 1248 1882 1269 1858L5293 5295Z" fill="#2aff00" fill-rule="evenodd" opacity="1" stroke="none"/>
<path d="M5293 5295L9317 8732C9296 8756 9278 8777 9256 8801L5293 5295Z" fill="#d100ff" fill-rule="evenodd" opacity="1" stroke="none"/>
<path d="M5293 5295L1269 1858C1290 1833 1308 1812 1329 1788L5293 5295Z" fill="#2eff00" fill-rule="evenodd" opacity="1" stroke="none"/>
<path d="M5293 5295L9256 8801C9235 8826 9216 8846 9194 8870L5293 5295Z" fill="#cc00ff" fill-rule="evenodd" opacity="1" stroke="none"/>
<path d="M5293 5295L1329 1788C1351 1764 1369 1743 1391 1719L5293 5295Z" fill="#33ff00" fill-rule="evenodd" opacity="1" stroke="none"/>
<path d="M5293 5295L9194 8870C9172 8894 9154 8914 9131 8937L5293 5295Z" fill="#c800ff" fill-rule="evenodd" opacity="1" stroke="none"/>
<path d="M5293 5295L1391 1719C1413 1695 1432 1675 1454 1652L5293 5295Z" fill="#37ff00" fill-rule="evenodd" opacity="1" stroke="none"/>
<path d="M5293 5295L9131 8937C9109 8961 9090 8981 9067 9004L5293 5295Z" fill="#c400ff" fill-rule="evenodd" opacity="1" stroke="none"/>
<path d="M5293 5295L1454 1652C1476 1628 1495 1609 1518 1585L5293 5295Z" fill="#3bff00" fill-rule="evenodd" opacity="1" stroke="none"/>
<path d="M5293 5295L9067 9004L9002 9069L5293 5295Z" fill="#c000ff" fill-rule="evenodd" opacity="1" stroke="none"/>
<path d="M5293 5295L1518 1585C1541 1562 1560 1543 1584 1520L5293 5295Z" fill="#3fff00" fill-rule="evenodd" opacity="1" stroke="none"/>
<path d="M5293 5295L9002 9069C8979 9092 8959 9111 8935 9133L5293 5295Z" fill="#bb00ff" fill-rule="evenodd" opacity="1" stroke="none"/>
<path d="M5293 5295L1584 1520C1607 1497 1626 1478 1650 1456L5293 5295Z" fill="#44ff00" fill-rule="evenodd" opacity="1" stroke="none"/>
<path d="M5293 5295L8935 9133C8912 9156 8892 9174 8868 9196L5293 5295Z" fill="#b700ff" fill-rule="evenodd" opacity="1" stroke="none"/>
<path d="M5293 5295L1650 1456C1673 1434 1694 1415 1717 1393L5293 5295Z" fill="#48ff00" fill-rule="evenodd" opacity="1" stroke="none"/>
<path d="M5293 5295L8868 9196C8844 9218 8824 9237 8799 9258L5293 5295Z" fill="#b300ff" fill-rule="evenodd" opacity="1" stroke="none"/>
<path d="M5293 5295L1717 1393C1741 1371 1762 1353 1786 1331L5293 5295Z" fill="#4cff00" fill-rule="evenodd" opacity="1" stroke="none"/>
<path d="M5293 5295L8799 9258C8775 9280 8754 9298 8730 9319L5293 5295Z" fill="#af00ff" fill-rule="evenodd" opacity="1" stroke="none"/>
<path d="M5293 5295L1786 1331C1810 1310 1831 1292 1856 1271L5293 5295Z" fill="#50ff00" fill-rule="evenodd" opacity="1" stroke="none"/>
<path d="M5293 5295L8730 9319C8705 9340 8684 9357 8659 9378L5293 5295Z" fill="#aa00ff" fill-rule="evenodd" opacity="1" stroke="none"/>
<path d="M5293 5295L1856 1271C1881 1249 1902 1232 1927 1211L5293 5295Z" fill="#55ff00" fill-rule="evenodd" opacity="1" stroke="none"/>
<path d="M5293 5295L8659 9378C8634 9399 8612 9416 8587 9436L5293 5295Z" fill="#a600ff" fill-rule="evenodd" opacity="1" stroke="none"/>
<path d="M5293 5295L1927 1211C1952 1191 1973 1173 1998 1153L5293 5295Z" fill="#59ff00" fill-rule="evenodd" opacity="1" stroke="none"/>
<path d="M5293 5295L8587 9436C8562 9456 8540 9473 8514 9493L5293 5295Z" fill="#a200ff" fill-rule="evenodd" opacity="1" stroke="none"/>
<path d="M5293 5295L1998 1153C2024 1133 2045 1116 2071 1096L5293 5295Z" fill="#5dff00" fill-rule="evenodd" opacity="1" stroke="none"/>
<path d="M5293 5295L8514 9493C8489 9513 8467 9529 8441 9549L5293 5295Z" fill="#9e00ff" fill-rule="evenodd" opacity="1" stroke="none"/>
<path d="M5293 5295L2071 1096C2097 1076 2119 1060 2145 1041L5293 5295Z" fill="#61ff00" fill-rule="evenodd" opacity="1" stroke="none"/>
<path d="M5293 5295L8441 9549C8414 9568 8392 9584 8366 9603L5293 5295Z" fill="#9900ff" fill-rule="evenodd" opacity="1" stroke="none"/>
<path d="M5293 5295L2145 1041C2171 1021 2193 1005 2220 986L5293 5295Z" fill="#66ff00" fill-rule="evenodd" opacity="1" stroke="none"/>
<path d="M5293 5295L8366 9603C8339 9622 8317 9638 8290 9656L5293 5295Z" fill="#9500ff" fill-rule="evenodd" opacity="1" stroke="none"/>
<path d="M5293 5295L2220 986C2246 968 2269 952 2295 933L5293 5295Z" fill="#6aff00" fill-rule="evenodd" opacity="1" stroke="none"/>
<path d="M5293 5295L8290 9656C8263 9674 8241 9690 8214 9708L5293 5295Z" fill="#9100ff" fill-rule="evenodd" opacity="1" stroke="none"/>
<path d="M5293 5295L2295 933C2322 915 2345 900 2372 882L5293 5295Z" fill="#6eff00" fill-rule="evenodd" opacity="1" stroke="none"/>
<path d="M5293 5295L8214 9708C8186 9726 8163 9740 8136 9758L5293 5295Z" fill="#8d00ff" fill-rule="evenodd" opacity="1" stroke="none"/>
<path d="M5293 5295L2372 882C2399 864 2422 849 2449 831L5293 5295Z" fill="#72ff00" fill-rule="evenodd" opacity="1" stroke="none"/>
<path d="M5293 5295L8136 9758C8109 9775 8085 9790 8058 9807L5293 5295Z" fill="#8800ff" fill-rule="evenodd" opacity="1" stroke="none"/>
<path d="M5293 5295L2449 831C2477 814 2500 799 2528 782L5293 5295Z" fill="#77ff00" fill-rule="evenodd" opacity="1" stroke="none"/>
<path d="M5293 5295L8058 9807C8030 9824 8007 9838 7979 9854L5293 5295Z" fill="#8400ff" fill-rule="evenodd" opacity="1" stroke="none"/>
<path d="M5293 5295L2528 782C2555 766 2579 751 2607 735L5293 5295Z" fill="#7bff00" fill-rule="evenodd" opacity="1" stroke="none"/>
<path d="M5293 5295L7979 9854C7951 9871 7927 9885 7899 9901L5293 5295Z" fill="#8000ff" fill-rule="evenodd" opacity="1" stroke="none"/>
<path d="M5293 5295L2607 735C2635 718 2659 705 2687 689L5293 5295Z" fill="#7fff00" fill-rule="evenodd" opacity="1" stroke="none"/>
<path d="M5293 5295L7899 9901C7870 9917 7846 9930 7818 9945L5293 5295Z" fill="#7c00ff" fill-rule="evenodd" opacity="1" stroke="none"/>
<path d="M5293 5295L2687 689C2715 673 2739 659 2768 644L5293 5295Z" fill="#83ff00" fill-rule="evenodd" opacity="1" stroke="none"/>
<path d="M5293 5295L7818 9945C7789 9961 7765 9974 7736 9989L5293 5295Z" fill="#7700ff" fill-rule="evenodd" opacity="1" stroke="none"/>
<path d="M5293 5295L2768 644C2796 628 2820 616 2849 601L5293 5295Z" fill="#88ff00" fill-rule="evenodd" opacity="1" stroke="none"/>
<path d="M5293 5295L7736 9989C7707 10004 7683 10016 7654 10031L5293 5295Z" fill="#7300ff" fill-rule="evenodd" opacity="1" stroke="none"/>
<path d="M5293 5295L2849 601C2878 586 2902 573 2931 559L5293 5295Z" fill="#8cff00" fill-rule="evenodd" opacity="1" stroke="none"/>
<path d="M5293 5295L7654 10031C7625 10045 7600 10057 7571 10071L5293 5295Z" fill="#6f00ff" fill-rule="evenodd" opacity="1" stroke="none"/>
<path d="M5293 5295L2931 559C2960 544 2985 532 3014 518L5293 5295Z" fill="#90ff00" fill-rule="evenodd" opacity="1" stroke="none"/>
<path d="M5293 5295L7571 10071C7542 10085 7517 10097 7487 10110L5293 5295Z" fill="#6b00ff" fill-rule="evenodd" opacity="1" stroke="none"/>
<path d="M5293 5295L3014 518C3044 504 3069 493 3098 479L5293 5295Z" fill="#94ff00" fill-rule="evenodd" opacity="1" stroke="none"/>
<path d="M5293 5295L7487 10110C7458 10124 7433 10135 7403 10148L5293 5295Z" fill="#6600ff" fill-rule="evenodd" opacity="1" stroke="none"/>
<path d="M5293 5295L3098 479C3128 466 3153 455 3183 442L5293 5295Z" fill="#99ff00" fill-rule="evenodd" opacity="1" stroke="none"/>
<path d="M5293 5295L7403 10148C7373 10161 7348 10171 7318 10184L5293 5295Z" fill="#6200ff" fill-rule="evenodd" opacity="1" stroke="none"/>
<path d="M5293 5295L3183 442C3212 429 3238 418 3268 405L5293 5295Z" fill="#9dff00" fill-rule="evenodd" opacity="1" stroke="none"/>
<path d="M5293 5295L7318 10184C7288 10196 7262 10207 7232 10218L5293 5295Z" fill="#5e00ff" fill-rule="evenodd" opacity="1" stroke="none"/>
<path d="M5293 5295L3268 405L3353 371L5293 5295Z" fill="#a1ff00" fill-rule="evenodd" opacity="1" stroke="none"/>
<path d="M5293 5295L7232 10218C7202 10230 7176 10240 7146 10252L5293 5295Z" fill="#5a00ff" fill-rule="evenodd" opacity="1" stroke="none"/>
<path d="M5293 5295L3353 371C3383 359 3409 349 3439 338L5293 5295Z" fill="#a5ff00" fill-rule="evenodd" opacity="1" stroke="none"/>
<path d="M5293 5295L7146 10252C7116 10263 7090 10272 7059 10283L5293 5295Z" fill="#5500ff" fill-rule="evenodd" opacity="1" stroke="none"/>
<path d="M5293 5295L3439 338C3470 326 3496 317 3526 306L5293 5295Z" fill="#aaff00" fill-rule="evenodd" opacity="1" stroke="none"/>
<path d="M5293 5295L7059 10283C7029 10294 7003 10303 6972 10313L5293 5295Z" fill="#5100ff" fill-rule="evenodd" opacity="1" stroke="none"/>
<path d="M5293 5295L3526 306C3557 295 3583 286 3614 276L5293 5295Z" fill="#aeff00" fill-rule="evenodd" opacity="1" stroke="none"/>
<path d="M5293 5295L6972 10313C6941 10323 6915 10332 6884 10342L5293 5295Z" fill="#4d00ff" fill-rule="evenodd" opacity="1" stroke="none"/>
<path d="M5293 5295L3614 276C3644 266 3670 257 3701 248L5293 5295Z" fill="#b2ff00" fill-rule="evenodd" opacity="1" stroke="none"/>
<path d="M5293 5295L6884 10342C6853 10351 6827 10360 6796 10369L5293 5295Z" fill="#4900ff" fill-rule="evenodd" opacity="1" stroke="none"/>
<path d="M5293 5295L3701 248C3732 238 3759 230 3790 221L5293 5295Z" fill="#b6ff00" fill-rule="evenodd" opacity="1" stroke="none"/>
<path d="M5293 5295L6796 10369C6765 10378 6738 10386 6707 10394L5293 5295Z" fill="#4400ff" fill-rule="evenodd" opacity="1" stroke="none"/>
<path d="M5293 5295L3790 221C3821 211 3847 204 3878 195L5293 5295Z" fill="#bbff00" fill-rule="evenodd" opacity="1" stroke="none"/>
<path d="M5293 5295L6707 10394C6676 10403 6649 10410 6618 10418L5293 5295Z" fill="#4000ff" fill-rule="evenodd" opacity="1" stroke="none"/>
<path d="M5293 5295L3878 195C3910 186 3936 179 3968 171L5293 5295Z" fill="#bfff00" fill-rule="evenodd" opacity="1" stroke="none"/>
<path d="M5293 5295L6618 10418C6586 10426 6560 10433 6528 10440L5293 5295Z" fill="#3c00ff" fill-rule="evenodd" opacity="1" stroke="none"/>
<path d="M5293 5295L3968 171C3999 163 4026 156 4057 149L5293 5295Z" fill="#c3ff00" fill-rule="evenodd" opacity="1" stroke="none"/>
<path d="M5293 5295L6528 10440C6497 10448 6470 10454 6438 10461L5293 5295Z" fill="#3800ff" fill-rule="evenodd" opacity="1" stroke="none"/>
<path d="M5293 5295L4057 149C4089 141 4116 135 4147 128L5293 5295Z" fill="#c7ff00" fill-rule="evenodd" opacity="1" stroke="none"/>
<path d="M5293 5295L6438 10461C6406 10468 6380 10474 6348 10480L5293 5295Z" fill="#3300ff" fill-rule="evenodd" opacity="1" stroke="none"/>
<path d="M5293 5295L4147 128C4179 121 4206 115 4238 109L5293 5295Z" fill="#ccff00" fill-rule="evenodd" opacity="1" stroke="none"/>
<path d="M5293 5295L6348 10480C6316 10487 6289 10492 6257 10498L5293 5295Z" fill="#2f00ff" fill-rule="evenodd" opacity="1" stroke="none"/>
<path d="M5293 5295L4238 109C4269 102 4296 97 4328 91L5293 5295Z" fill="#d0ff00" fill-rule="evenodd" opacity="1" stroke="none"/>
<path d="M5293 5295L6257 10498C6225 10504 6198 10509 6166 10514L5293 5295Z" fill="#2b00ff" fill-rule="evenodd" opacity="1" stroke="none"/>
<path d="M5293 5295L4328 91C4360 85 4387 81 4419 75L5293 5295Z" fill="#d4ff00" fill-rule="evenodd" opacity="1" stroke="none"/>
<path d="M5293 5295L6166 10514C6134 10519 6107 10524 6075 10529L5293 5295Z" fill="#2700ff" fill-rule="evenodd" opacity="1" stroke="none"/>
<path d="M5293 5295L4419 75C4451 70 4478 66 4511 61L5293 5295Z" fill="#d8ff00" fill-rule="evenodd" opacity="1" stroke="none"/>
<path d="M5293 5295L6075 10529C6043 10533 6016 10537 5983 10541L5293 5295Z" fill="#2200ff" fill-rule="evenodd" opacity="1" stroke="none"/>
<path d="M5293 5295L4511 61C4543 56 4570 52 4602 48L5293 5295Z" fill="#ddff00" fill-rule="evenodd" opacity="1" stroke="none"/>
<path d="M5293 5295L5983 10541C5951 10546 5924 10549 5892 10553L5293 5295Z" fill="#1e00ff" fill-rule="evenodd" opacity="1" stroke="none"/>
<path d="M5293 5295L4602 48C4634 44 4661 40 4694 37L5293 5295Z" fill="#e1ff00" fill-rule="evenodd" opacity="1" stroke="none"/>
<path d="M5293 5295L5892 10553C5860 10556 5832 10559 5800 10562L5293 5295Z" fill="#1a00ff" fill-rule="evenodd" opacity="1" stroke="none"/>
<path d="M5293 5295L4694 37C4726 33 4753 30 4785 27L5293 5295Z" fill="#e5ff00" fill-rule="evenodd" opacity="1" stroke="none"/>
<path d="M5293 5295L5800 10562C5768 10565 5740 10568 5708 10570L5293 5295Z" fill="#1600ff" fill-rule="evenodd" opacity="1" stroke="none"/>
<path d="M5293 5295L4785 27C4818 24 4845 22 4878 19L5293 5295Z" fill="#e9ff00" fill-rule="evenodd" opacity="1" stroke="none"/>
<path d="M5293 5295L5708 10570C5676 10573 5648 10575 5616 10577L5293 5295Z" fill="#1100ff" fill-rule="evenodd" opacity="1" stroke="none"/>
<path d="M5293 5295L4878 19C4910 16 4937 15 4970 13L5293 5295Z" fill="#eeff00" fill-rule="evenodd" opacity="1" stroke="none"/>
<path d="M5293 5295L5616 10577C5583 10579 5556 10580 5524 10582L5293 5295Z" fill="#0d00ff" fill-rule="evenodd" opacity="1" stroke="none"/>
<path d="M5293 5295L4970 13C5002 11 5029 9 5062 8L5293 5295Z" fill="#f2ff00" fill-rule="evenodd" opacity="1" stroke="none"/>
<path d="M5293 5295L5524 10582C5491 10583 5464 10584 5431 10585L5293 5295Z" fill="#0900ff" fill-rule="evenodd" opacity="1" stroke="none"/>
<path d="M5293 5295L5062 8C5094 6 5122 5 5154 4L5293 5295Z" fill="#f6ff00" fill-rule="evenodd" opacity="1" stroke="none"/>
<path d="M5293 5295L5431 10585C5399 10586 5371 10586 5339 10586L5293 5295Z" fill="#0500ff" fill-rule="evenodd" opacity="1" stroke="none"/>
<path d="M5293 5295L5154 4C5187 4 5214 3 5247 3L5293 5295Z" fill="#faff00" fill-rule="evenodd" opacity="1" stroke="none"/>
</g>
</g>
</g>
</svg>
